<svg width="263" height="263" viewBox="0 0 263 263" fill="none" xmlns="http://www.w3.org/2000/svg">
<circle cx="131.5" cy="131.5" r="131.5" fill="#181818"/>
<path d="M132 14V0L125.5 0.5L129.5 14H132Z" fill="#D9D9D9"/>
<path d="M132 14V0L138.5 0.5L134.5 14H132Z" fill="#D9D9D9"/>
<path d="M69.0191 32.2962L61.4758 20.5022L56.2694 24.4256L66.913 33.6432L69.0191 32.2962Z" fill="#D9D9D9"/>
<path d="M29.3876 73.5377L17.1922 66.6621L14.4355 72.5698L28.1598 75.7154L29.3876 73.5377Z" fill="#D9D9D9"/>
<path d="M69.0191 32.2963L61.4759 20.5022L67.2211 17.4212L71.1252 30.9493L69.0191 32.2963Z" fill="#D9D9D9"/>
<path d="M29.3879 73.5377L17.1925 66.6621L20.8203 61.2456L30.6156 71.36L29.3879 73.5377Z" fill="#D9D9D9"/>
<path d="M194.476 32.2962L202.019 20.5022L207.225 24.4256L196.582 33.6432L194.476 32.2962Z" fill="#D9D9D9"/>
<path d="M234.107 73.5377L246.303 66.6621L249.059 72.5698L235.335 75.7154L234.107 73.5377Z" fill="#D9D9D9"/>
<path d="M194.476 32.2963L202.019 20.5022L196.274 17.4212L192.37 30.9493L194.476 32.2963Z" fill="#D9D9D9"/>
<path d="M234.107 73.5377L246.302 66.6621L242.675 61.2456L232.879 71.36L234.107 73.5377Z" fill="#D9D9D9"/>
<path d="M29.3876 189.662L17.1922 196.538L14.4355 190.63L28.1598 187.484L29.3876 189.662Z" fill="#D9D9D9"/>
<path d="M29.3879 189.662L17.1925 196.538L20.8203 201.954L30.6156 191.84L29.3879 189.662Z" fill="#D9D9D9"/>
<path d="M234.107 189.662L246.303 196.538L249.059 190.63L235.335 187.484L234.107 189.662Z" fill="#D9D9D9"/>
<path d="M234.107 189.662L246.302 196.538L242.675 201.954L232.879 191.84L234.107 189.662Z" fill="#D9D9D9"/>
<path d="M249 131.5L263 131.5L262.5 125L249 129L249 131.5Z" fill="#D9D9D9"/>
<path d="M14 131.5L8.52372e-07 131.5L0.5 138L14 134L14 131.5Z" fill="#D9D9D9"/>
<path d="M249 131.5L263 131.5L262.5 138L249 134L249 131.5Z" fill="#D9D9D9"/>
<path d="M14 131.5L-8.52372e-07 131.5L0.5 125L14 129L14 131.5Z" fill="#D9D9D9"/>
<path d="M129.311 131L35.2308 187.084L131.772 135.352L129.311 131Z" fill="#1E1E1E"/>
<path d="M135.462 131L229.542 187.084L133 135.352L135.462 131Z" fill="#1E1E1E"/>
<circle cx="132" cy="132" r="3" fill="#12C0FA"/>
</svg>
