<svg width="289" height="289" viewBox="0 0 289 289" fill="none" xmlns="http://www.w3.org/2000/svg">
<circle cx="144.5" cy="144.5" r="144.5" fill="#1E1E1E"/>
<circle cx="144.5" cy="144.5" r="131.5" fill="#181818"/>
<path d="M145 27V13L138.5 13.5L142.5 27H145Z" fill="#D9D9D9"/>
<path d="M145 27V13L151.5 13.5L147.5 27H145Z" fill="#D9D9D9"/>
<path d="M82.0191 45.2962L74.4758 33.5022L69.2694 37.4256L79.913 46.6432L82.0191 45.2962Z" fill="#D9D9D9"/>
<path d="M42.3876 86.5377L30.1922 79.6621L27.4355 85.5698L41.1598 88.7154L42.3876 86.5377Z" fill="#D9D9D9"/>
<path d="M82.0191 45.2963L74.4759 33.5022L80.2211 30.4212L84.1252 43.9493L82.0191 45.2963Z" fill="#D9D9D9"/>
<path d="M42.3879 86.5377L30.1925 79.6621L33.8203 74.2456L43.6156 84.36L42.3879 86.5377Z" fill="#D9D9D9"/>
<path d="M207.476 45.2962L215.019 33.5022L220.225 37.4256L209.582 46.6432L207.476 45.2962Z" fill="#D9D9D9"/>
<path d="M247.107 86.5377L259.303 79.6621L262.059 85.5698L248.335 88.7154L247.107 86.5377Z" fill="#D9D9D9"/>
<path d="M207.476 45.2963L215.019 33.5022L209.274 30.4212L205.37 43.9493L207.476 45.2963Z" fill="#D9D9D9"/>
<path d="M247.107 86.5377L259.302 79.6621L255.675 74.2456L245.879 84.36L247.107 86.5377Z" fill="#D9D9D9"/>
<path d="M42.3876 202.662L30.1922 209.538L27.4355 203.63L41.1598 200.484L42.3876 202.662Z" fill="#D9D9D9"/>
<path d="M42.3879 202.662L30.1925 209.538L33.8203 214.954L43.6156 204.84L42.3879 202.662Z" fill="#D9D9D9"/>
<path d="M247.107 202.662L259.303 209.538L262.059 203.63L248.335 200.484L247.107 202.662Z" fill="#D9D9D9"/>
<path d="M247.107 202.662L259.302 209.538L255.675 214.954L245.879 204.84L247.107 202.662Z" fill="#D9D9D9"/>
<path d="M262 144.5L276 144.5L275.5 138L262 142L262 144.5Z" fill="#D9D9D9"/>
<path d="M27 144.5L13 144.5L13.5 151L27 147L27 144.5Z" fill="#D9D9D9"/>
<path d="M262 144.5L276 144.5L275.5 151L262 147L262 144.5Z" fill="#D9D9D9"/>
<path d="M27 144.5L13 144.5L13.5 138L27 142L27 144.5Z" fill="#D9D9D9"/>
<path d="M138.697 147.078L43.6508 201.509L141.082 151.472L138.697 147.078Z" fill="#1E1E1E"/>
<path d="M144.299 146L240.39 198.563L142 150.44L144.299 146Z" fill="#1E1E1E"/>
<circle cx="142" cy="148" r="3" fill="#12C0FA"/>
</svg>
